REM DIRINDEX 1\2,1\3
REM DIRNAME folder01,folder02,folder03
TITLE ""
FILE "3281-3300.mp3" MP3
  TRACK 01 AUDIO
    TITLE "0:"
    INDEX 01 00:00:00
  TRACK 02 AUDIO
    TITLE "2:cjc039_5561"
    INDEX 01 00:00:25
  TRACK 03 AUDIO
    TITLE "0:"
    INDEX 01 00:01:50
  TRACK 04 AUDIO
    TITLE "3:cjc039_5562"
    INDEX 01 00:02:24
  TRACK 05 AUDIO
    TITLE "0:"
    INDEX 01 00:05:59
  TRACK 06 AUDIO
    TITLE "2:cjc039_5563"
    INDEX 01 00:07:37
  TRACK 07 AUDIO
    TITLE "0:"
    INDEX 01 00:08:62
  TRACK 08 AUDIO
    TITLE "3:cjc039_5564"
    INDEX 01 00:09:44
  TRACK 09 AUDIO
    TITLE "0:"
    INDEX 01 00:13:08
  TRACK 10 AUDIO
    TITLE "2:cjc039_5565"
    INDEX 01 00:14:62
  TRACK 11 AUDIO
    TITLE "0:"
    INDEX 01 00:16:18
  TRACK 12 AUDIO
    TITLE "3:cjc039_5566"
    INDEX 01 00:16:67
  TRACK 13 AUDIO
    TITLE "0:"
    INDEX 01 00:20:57
  TRACK 14 AUDIO
    TITLE "2:cjc039_5567"
    INDEX 01 00:22:30
  TRACK 15 AUDIO
    TITLE "0:"
    INDEX 01 00:23:50
  TRACK 16 AUDIO
    TITLE "3:cjc039_5568"
    INDEX 01 00:24:29
  TRACK 17 AUDIO
    TITLE "0:"
    INDEX 01 00:29:64
  TRACK 18 AUDIO
    TITLE "2:cjc039_5569"
    INDEX 01 00:31:39
  TRACK 19 AUDIO
    TITLE "0:"
    INDEX 01 00:32:43
  TRACK 20 AUDIO
    TITLE "3:cjc039_5570"
    INDEX 01 00:33:22
  TRACK 21 AUDIO
    TITLE "0:"
    INDEX 01 00:36:62
  TRACK 22 AUDIO
    TITLE "2:cjc039_5571"
    INDEX 01 00:38:41
  TRACK 23 AUDIO
    TITLE "0:"
    INDEX 01 00:39:58
  TRACK 24 AUDIO
    TITLE "3:cjc039_5572"
    INDEX 01 00:40:34
  TRACK 25 AUDIO
    TITLE "0:"
    INDEX 01 00:43:70
  TRACK 26 AUDIO
    TITLE "2:cjc039_5573"
    INDEX 01 00:45:41
  TRACK 27 AUDIO
    TITLE "0:"
    INDEX 01 00:46:66
  TRACK 28 AUDIO
    TITLE "3:cjc039_5574"
    INDEX 01 00:47:44
  TRACK 29 AUDIO
    TITLE "0:"
    INDEX 01 00:50:29
  TRACK 30 AUDIO
    TITLE "2:cjc039_5575"
    INDEX 01 00:52:06
  TRACK 31 AUDIO
    TITLE "0:"
    INDEX 01 00:53:37
  TRACK 32 AUDIO
    TITLE "3:cjc039_5576"
    INDEX 01 00:54:11
  TRACK 33 AUDIO
    TITLE "0:"
    INDEX 01 00:58:05
  TRACK 34 AUDIO
    TITLE "2:cjc039_5577"
    INDEX 01 00:59:55
  TRACK 35 AUDIO
    TITLE "0:"
    INDEX 01 01:00:55
  TRACK 36 AUDIO
    TITLE "3:cjc039_5578"
    INDEX 01 01:01:27
  TRACK 37 AUDIO
    TITLE "0:"
    INDEX 01 01:04:07
  TRACK 38 AUDIO
    TITLE "2:cjc039_5579"
    INDEX 01 01:05:62
  TRACK 39 AUDIO
    TITLE "0:"
    INDEX 01 01:07:29
  TRACK 40 AUDIO
    TITLE "3:cjc039_5580"
    INDEX 01 01:08:03
  TRACK 41 AUDIO
    TITLE "0:"
    INDEX 01 01:11:66
  TRACK 42 AUDIO
    TITLE "2:cjc039_5581"
    INDEX 01 01:13:42
  TRACK 43 AUDIO
    TITLE "0:"
    INDEX 01 01:14:41
  TRACK 44 AUDIO
    TITLE "3:cjc039_5582"
    INDEX 01 01:15:17
  TRACK 45 AUDIO
    TITLE "0:"
    INDEX 01 01:18:17
  TRACK 46 AUDIO
    TITLE "2:cjc039_5583"
    INDEX 01 01:19:72
  TRACK 47 AUDIO
    TITLE "0:"
    INDEX 01 01:21:18
  TRACK 48 AUDIO
    TITLE "3:cjc039_5584"
    INDEX 01 01:21:65
  TRACK 49 AUDIO
    TITLE "0:"
    INDEX 01 01:24:71
  TRACK 50 AUDIO
    TITLE "2:cjc039_5585"
    INDEX 01 01:26:46
  TRACK 51 AUDIO
    TITLE "0:"
    INDEX 01 01:27:65
  TRACK 52 AUDIO
    TITLE "3:cjc039_5586"
    INDEX 01 01:28:41
  TRACK 53 AUDIO
    TITLE "0:"
    INDEX 01 01:32:00
  TRACK 54 AUDIO
    TITLE "2:cjc039_5587"
    INDEX 01 01:33:48
  TRACK 55 AUDIO
    TITLE "0:"
    INDEX 01 01:35:22
  TRACK 56 AUDIO
    TITLE "3:cjc039_5588"
    INDEX 01 01:36:00
  TRACK 57 AUDIO
    TITLE "0:"
    INDEX 01 01:39:70
  TRACK 58 AUDIO
    TITLE "2:cjc039_5589"
    INDEX 01 01:41:48
  TRACK 59 AUDIO
    TITLE "0:"
    INDEX 01 01:42:73
  TRACK 60 AUDIO
    TITLE "3:cjc039_5590"
    INDEX 01 01:43:45
  TRACK 61 AUDIO
    TITLE "0:"
    INDEX 01 01:46:74
  TRACK 62 AUDIO
    TITLE "2:cjc039_5591"
    INDEX 01 01:48:52
  TRACK 63 AUDIO
    TITLE "0:"
    INDEX 01 01:50:17
  TRACK 64 AUDIO
    TITLE "3:cjc039_5592"
    INDEX 01 01:50:68
  TRACK 65 AUDIO
    TITLE "0:"
    INDEX 01 01:55:26
  TRACK 66 AUDIO
    TITLE "2:cjc039_5593"
    INDEX 01 01:57:02
  TRACK 67 AUDIO
    TITLE "0:"
    INDEX 01 01:58:19
  TRACK 68 AUDIO
    TITLE "3:cjc039_5594"
    INDEX 01 01:58:68
  TRACK 69 AUDIO
    TITLE "0:"
    INDEX 01 02:01:72
  TRACK 70 AUDIO
    TITLE "2:cjc039_5595"
    INDEX 01 02:03:49
  TRACK 71 AUDIO
    TITLE "0:"
    INDEX 01 02:05:17
  TRACK 72 AUDIO
    TITLE "3:cjc039_5596"
    INDEX 01 02:05:70
  TRACK 73 AUDIO
    TITLE "0:"
    INDEX 01 02:09:71
  TRACK 74 AUDIO
    TITLE "2:cjc039_5597"
    INDEX 01 02:11:45
  TRACK 75 AUDIO
    TITLE "0:"
    INDEX 01 02:12:68
  TRACK 76 AUDIO
    TITLE "3:cjc039_5598"
    INDEX 01 02:13:44
  TRACK 77 AUDIO
    TITLE "0:"
    INDEX 01 02:16:66
  TRACK 78 AUDIO
    TITLE "2:cjc039_5599"
    INDEX 01 02:18:47
  TRACK 79 AUDIO
    TITLE "0:"
    INDEX 01 02:19:62
  TRACK 80 AUDIO
    TITLE "3:cjc039_5600"
    INDEX 01 02:20:38
  TRACK 81 AUDIO
    TITLE "0:"
    INDEX 01 02:23:74
